<?xml version="1.0" encoding="UTF-8" standalone="no"?><svg xmlns="http://www.w3.org/2000/svg" xmlns:xlink="http://www.w3.org/1999/xlink" contentStyleType="text/css" height="194px" preserveAspectRatio="none" style="width:446px;height:194px;background:#FFFFFF;" version="1.1" viewBox="0 0 446 194" width="446px" zoomAndPan="magnify"><defs/><g><ellipse cx="16" cy="172" fill="#222222" rx="10" ry="10" style="stroke:none;stroke-width:1.0;"/><rect fill="#F1F1F1" height="33.9688" rx="12.5" ry="12.5" style="stroke:#181818;stroke-width:0.5;" width="87" x="46.5" y="155"/><text fill="#000000" font-family="sans-serif" font-size="12" lengthAdjust="spacing" textLength="67" x="56.5" y="176.1387">LOG macro</text><rect fill="#F1F1F1" height="33.9688" rx="12.5" ry="12.5" style="stroke:#181818;stroke-width:0.5;" width="63" x="153.5" y="155"/><text fill="#000000" font-family="sans-serif" font-size="12" lengthAdjust="spacing" textLength="43" x="163.5" y="176.1387">Record</text><rect fill="#F1F1F1" height="33.9688" rx="12.5" ry="12.5" style="stroke:#181818;stroke-width:0.5;" width="63" x="236.5" y="155"/><text fill="#000000" font-family="sans-serif" font-size="12" lengthAdjust="spacing" textLength="43" x="246.5" y="176.1387">Logger</text><rect fill="#F1F1F1" height="33.9688" rx="12.5" ry="12.5" style="stroke:#181818;stroke-width:0.5;" width="80" x="320" y="155"/><text fill="#000000" font-family="sans-serif" font-size="12" lengthAdjust="spacing" textLength="60" x="330" y="176.1387">Appender</text><rect fill="#F1F1F1" height="33.9688" rx="12.5" ry="12.5" style="stroke:#181818;stroke-width:0.5;" width="79" x="284.5" y="81"/><text fill="#000000" font-family="sans-serif" font-size="12" lengthAdjust="spacing" textLength="59" x="294.5" y="102.1387">Formatter</text><rect fill="#F1F1F1" height="33.9688" rx="12.5" ry="12.5" style="stroke:#181818;stroke-width:0.5;" width="80" x="319" y="7"/><text fill="#000000" font-family="sans-serif" font-size="12" lengthAdjust="spacing" textLength="60" x="329" y="28.1387">Converter</text><ellipse cx="430" cy="172" fill="none" rx="10" ry="10" style="stroke:#222222;stroke-width:1.0;"/><ellipse cx="430.5" cy="172.5" fill="#222222" rx="6" ry="6" style="stroke:none;stroke-width:1.0;"/><!--MD5=[a5def86475bf7b8a74a726327114474c]
link start to LOG macro--><g id="link_start_LOG macro"><path d="M26.1172,172 C31.0041,172 35.8909,172 40.7778,172 " fill="none" id="start-to-LOG macro" style="stroke:#181818;stroke-width:1.0;"/><polygon fill="#181818" points="46.0806,172,37.0806,168,41.0806,172,37.0806,176,46.0806,172" style="stroke:#181818;stroke-width:1.0;"/></g><!--MD5=[d7b48422ca15ea4fc6dfe7d26fe6bc80]
link LOG macro to Record--><g id="link_LOG macro_Record"><path d="M133.789,172 C138.588,172 143.387,172 148.186,172 " fill="none" id="LOG macro-to-Record" style="stroke:#181818;stroke-width:1.0;"/><polygon fill="#181818" points="153.393,172,144.393,168,148.393,172,144.393,176,153.393,172" style="stroke:#181818;stroke-width:1.0;"/></g><!--MD5=[965491c71ba65525a5a599dcaf25da3f]
link Record to Logger--><g id="link_Record_Logger"><path d="M216.773,172 C221.574,172 226.374,172 231.175,172 " fill="none" id="Record-to-Logger" style="stroke:#181818;stroke-width:1.0;"/><polygon fill="#181818" points="236.384,172,227.384,168,231.384,172,227.384,176,236.384,172" style="stroke:#181818;stroke-width:1.0;"/></g><!--MD5=[60612cedfc937a75fd4cac3e103518bc]
link Logger to Appender--><g id="link_Logger_Appender"><path d="M299.625,172 C304.696,172 309.766,172 314.837,172 " fill="none" id="Logger-to-Appender" style="stroke:#181818;stroke-width:1.0;"/><polygon fill="#181818" points="319.907,172,310.907,168,314.907,172,310.907,176,319.907,172" style="stroke:#181818;stroke-width:1.0;"/></g><!--MD5=[8763fc44da9912e4d6cd8afad5d8cb47]
reverse link Formatter to Appender--><g id="link_Formatter_Appender"><path d="M334.465,119.9308 C340.008,131.0169 346.715,144.4294 351.863,154.7267 " fill="none" id="Formatter-backto-Appender" style="stroke:#181818;stroke-width:1.0;"/><polygon fill="#181818" points="332.169,115.3379,332.617,125.1766,334.4054,119.8099,339.7721,121.5983,332.169,115.3379" style="stroke:#181818;stroke-width:1.0;"/></g><!--MD5=[77e47520e17aadb334b83db1cbeb0121]
reverse link Converter to Formatter--><g id="link_Converter_Formatter"><path d="M348.825,45.931 C343.436,57.017 336.916,70.429 331.911,80.727 " fill="none" id="Converter-backto-Formatter" style="stroke:#181818;stroke-width:1.0;"/><polygon fill="#181818" points="351.058,41.338,343.5262,47.6841,348.8724,45.835,350.7214,51.1811,351.058,41.338" style="stroke:#181818;stroke-width:1.0;"/></g><!--MD5=[9d3e2e0cdfcd355da51e9d29ac4ff826]
link Converter to Appender--><g id="link_Converter_Appender"><path d="M364.62,41.432 C368.092,52.472 372.214,67.429 374,81 C375.972,95.9819 375.846,100.0021 374,115 C372.569,126.6248 369.527,139.3073 366.642,149.6588 " fill="none" id="Converter-to-Appender" style="stroke:#181818;stroke-width:1.0;"/><polygon fill="#181818" points="365.247,154.5383,371.5676,146.9852,366.6219,149.731,363.876,144.7853,365.247,154.5383" style="stroke:#181818;stroke-width:1.0;"/></g><!--MD5=[9d706df707707f2224e7d2f936912f53]
link Appender to end--><g id="link_Appender_end"><path d="M400.195,172 C404.983,172 409.771,172 414.559,172 " fill="none" id="Appender-to-end" style="stroke:#181818;stroke-width:1.0;"/><polygon fill="#181818" points="419.755,172,410.755,168,414.755,172,410.755,176,419.755,172" style="stroke:#181818;stroke-width:1.0;"/></g><!--MD5=[c82dddb5e205eaa1a002ac6b55b76c2b]
@startuml
(*) -r-> "LOG macro"
-r-> "Record"
-r-> "Logger"
-r-> "Appender"
-u-> "Formatter"
-u-> "Converter"
-d-> "Appender"
-r-> (*)
@enduml

PlantUML version 1.2022.6beta2(Unknown compile time)
(GPL source distribution)
Java Runtime: Java(TM) SE Runtime Environment
JVM: Java HotSpot(TM) 64-Bit Server VM
Default Encoding: UTF-8
Language: en
Country: US
--></g></svg>