<?xml version="1.0" encoding="UTF-8" standalone="no"?><svg xmlns="http://www.w3.org/2000/svg" xmlns:xlink="http://www.w3.org/1999/xlink" contentStyleType="text/css" height="316px" preserveAspectRatio="none" style="width:688px;height:316px;background:#FFFFFF;" version="1.1" viewBox="0 0 688 316" width="688px" zoomAndPan="magnify"><defs/><g><ellipse cx="119.5" cy="48.6982" fill="#222222" rx="10" ry="10" style="stroke:#222222;stroke-width:1.0;"/><rect fill="#F1F1F1" height="47.9375" rx="12.5" ry="12.5" style="stroke:#181818;stroke-width:0.5;" width="197" x="21" y="78.6982"/><text fill="#000000" font-family="sans-serif" font-size="12" lengthAdjust="spacing" textLength="177" x="31" y="99.8369">Update weight of assignment</text><text fill="#000000" font-family="sans-serif" font-size="12" lengthAdjust="spacing" textLength="68" x="31" y="113.8057">(if needed)</text><line style="stroke:#000000;stroke-width:1.5;" x1="15" x2="15" y1="12.7451" y2="304.5107"/><rect fill="#F1F1F1" height="47.9375" rx="12.5" ry="12.5" style="stroke:#181818;stroke-width:0.5;" width="213" x="228" y="146.6357"/><text fill="#000000" font-family="sans-serif" font-size="12" lengthAdjust="spacing" textLength="193" x="238" y="167.7744">Update weight, name, contents,</text><text fill="#000000" font-family="sans-serif" font-size="12" lengthAdjust="spacing" textLength="153" x="238" y="181.7432">dates, etc. of assignment</text><line style="stroke:#000000;stroke-width:1.5;" x1="222" x2="222" y1="12.7451" y2="304.5107"/><rect fill="#F1F1F1" height="47.9375" rx="12.5" ry="12.5" style="stroke:#181818;stroke-width:0.5;" width="213" x="451" y="214.5732"/><text fill="#000000" font-family="sans-serif" font-size="12" lengthAdjust="spacing" textLength="193" x="461" y="235.7119">Update weight, name, contents,</text><text fill="#000000" font-family="sans-serif" font-size="12" lengthAdjust="spacing" textLength="153" x="461" y="249.6807">dates, etc. of assignment</text><ellipse cx="557.5" cy="293.5107" rx="11" ry="11" style="stroke:#222222;stroke-width:1.0;fill:none;"/><ellipse cx="557.5" cy="293.5107" fill="#222222" rx="6" ry="6" style="stroke:#111111;stroke-width:1.0;"/><line style="stroke:#000000;stroke-width:1.5;" x1="445" x2="445" y1="12.7451" y2="304.5107"/><line style="stroke:#000000;stroke-width:1.5;" x1="668" x2="668" y1="12.7451" y2="304.5107"/><line style="stroke:#181818;stroke-width:1.0;" x1="119.5" x2="119.5" y1="58.6982" y2="78.6982"/><polygon fill="#181818" points="115.5,68.6982,119.5,78.6982,123.5,68.6982,119.5,72.6982" style="stroke:#181818;stroke-width:1.0;"/><line style="stroke:#181818;stroke-width:1.0;" x1="557.5" x2="557.5" y1="262.5107" y2="282.5107"/><polygon fill="#181818" points="553.5,272.5107,557.5,282.5107,561.5,272.5107,557.5,276.5107" style="stroke:#181818;stroke-width:1.0;"/><line style="stroke:#181818;stroke-width:1.0;" x1="119.5" x2="119.5" y1="126.6357" y2="131.6357"/><line style="stroke:#181818;stroke-width:1.0;" x1="119.5" x2="334.5" y1="131.6357" y2="131.6357"/><line style="stroke:#181818;stroke-width:1.0;" x1="334.5" x2="334.5" y1="131.6357" y2="146.6357"/><polygon fill="#181818" points="330.5,136.6357,334.5,146.6357,338.5,136.6357,334.5,140.6357" style="stroke:#181818;stroke-width:1.0;"/><line style="stroke:#181818;stroke-width:1.0;" x1="334.5" x2="334.5" y1="194.5732" y2="199.5732"/><line style="stroke:#181818;stroke-width:1.0;" x1="334.5" x2="557.5" y1="199.5732" y2="199.5732"/><line style="stroke:#181818;stroke-width:1.0;" x1="557.5" x2="557.5" y1="199.5732" y2="214.5732"/><polygon fill="#181818" points="553.5,204.5732,557.5,214.5732,561.5,204.5732,557.5,208.5732" style="stroke:#181818;stroke-width:1.0;"/><text fill="#000000" font-family="sans-serif" font-size="18" lengthAdjust="spacing" textLength="131" x="53" y="29.4531">PlanETS (SMS)</text><text fill="#000000" font-family="sans-serif" font-size="18" lengthAdjust="spacing" textLength="122" x="272.5" y="29.4531">Moodle (LMS)</text><text fill="#000000" font-family="sans-serif" font-size="18" lengthAdjust="spacing" textLength="139" x="487" y="29.4531">SIGNETS (GMS)</text><!--MD5=[91790477f67d0ba28f2ac356669d5c5f]
@startuml
skinparam style strictuml
|PlanETS (SMS)|
start
:Update weight of assignment
(if needed);
|Moodle (LMS)|
:Update weight, name, contents,
dates, etc. of assignment;
|SIGNETS (GMS)|
:Update weight, name, contents,
dates, etc. of assignment;
stop
@enduml

PlantUML version 1.2022.6beta2(Unknown compile time)
(GPL source distribution)
Java Runtime: Java(TM) SE Runtime Environment
JVM: Java HotSpot(TM) 64-Bit Server VM
Default Encoding: UTF-8
Language: en
Country: US
--></g></svg>