<?xml version="1.0" encoding="UTF-8" standalone="no"?><svg xmlns="http://www.w3.org/2000/svg" xmlns:xlink="http://www.w3.org/1999/xlink" contentStyleType="text/css" height="389px" preserveAspectRatio="none" style="width:209px;height:389px;background:#FFFFFF;" version="1.1" viewBox="0 0 209 389" width="209px" zoomAndPan="magnify"><defs/><g><ellipse cx="103.5" cy="20" fill="#222222" rx="10" ry="10" style="stroke:#222222;stroke-width:1.0;"/><rect fill="#F1F1F1" height="33.9688" rx="12.5" ry="12.5" style="stroke:#181818;stroke-width:0.5;" width="78" x="64.5" y="94"/><text fill="#000000" font-family="sans-serif" font-size="12" lengthAdjust="spacing" textLength="58" x="74.5" y="115.1387">read data</text><rect fill="#F1F1F1" height="33.9688" rx="12.5" ry="12.5" style="stroke:#181818;stroke-width:0.5;" width="135" x="36" y="162.9688"/><text fill="#000000" font-family="sans-serif" font-size="12" lengthAdjust="spacing" textLength="115" x="46" y="184.1074">generate diagrams</text><polygon fill="#F1F1F1" points="60,50,147,50,159,62,147,74,60,74,48,62,60,50" style="stroke:#181818;stroke-width:0.5;"/><text fill="#000000" font-family="sans-serif" font-size="11" lengthAdjust="spacing" textLength="87" x="60" y="65.8081">data available?</text><polygon fill="#F1F1F1" points="90,238.9375,117,238.9375,129,250.9375,117,262.9375,90,262.9375,78,250.9375,90,238.9375" style="stroke:#181818;stroke-width:0.5;"/><text fill="#000000" font-family="sans-serif" font-size="11" lengthAdjust="spacing" textLength="27" x="90" y="254.7456">a&gt; b</text><rect fill="#F1F1F1" height="33.9688" rx="12.5" ry="12.5" style="stroke:#181818;stroke-width:0.5;" width="65" x="29.75" y="272.9375"/><text fill="#000000" font-family="sans-serif" font-size="12" lengthAdjust="spacing" textLength="41" x="43.75" y="294.0762">do aaa</text><rect fill="#F1F1F1" height="33.9688" rx="12.5" ry="12.5" style="stroke:#181818;stroke-width:0.5;" width="60" x="114.75" y="272.9375"/><text fill="#000000" font-family="sans-serif" font-size="12" lengthAdjust="spacing" textLength="36" x="128.75" y="294.0762">do bb</text><polygon fill="#F1F1F1" points="103.5,312.9063,115.5,324.9063,103.5,336.9063,91.5,324.9063,103.5,312.9063" style="stroke:#181818;stroke-width:0.5;"/><ellipse cx="103.5" cy="367.9063" rx="11" ry="11" style="stroke:#222222;stroke-width:1.0;fill:none;"/><ellipse cx="103.5" cy="367.9063" fill="#222222" rx="6" ry="6" style="stroke:#111111;stroke-width:1.0;"/><line style="stroke:#181818;stroke-width:1.0;" x1="103.5" x2="103.5" y1="127.9688" y2="162.9688"/><polygon fill="#181818" points="99.5,152.9688,103.5,162.9688,107.5,152.9688,103.5,156.9688" style="stroke:#181818;stroke-width:1.0;"/><line style="stroke:#181818;stroke-width:1.0;" x1="103.5" x2="103.5" y1="74" y2="94"/><polygon fill="#181818" points="99.5,84,103.5,94,107.5,84,103.5,88" style="stroke:#181818;stroke-width:1.0;"/><line style="stroke:#181818;stroke-width:1.0;" x1="103.5" x2="103.5" y1="196.9375" y2="206.9375"/><line style="stroke:#181818;stroke-width:1.0;" x1="103.5" x2="183" y1="206.9375" y2="206.9375"/><polygon fill="#181818" points="179,143.4688,183,133.4688,187,143.4688,183,139.4688" style="stroke:#181818;stroke-width:1.0;"/><line style="stroke:#181818;stroke-width:1.0;" x1="183" x2="183" y1="62" y2="206.9375"/><line style="stroke:#181818;stroke-width:1.0;" x1="183" x2="159" y1="62" y2="62"/><polygon fill="#181818" points="169,58,159,62,169,66,165,62" style="stroke:#181818;stroke-width:1.0;"/><line style="stroke:#181818;stroke-width:1.0;" x1="48" x2="24" y1="62" y2="62"/><polygon fill="#181818" points="20,129.4688,24,139.4688,28,129.4688,24,133.4688" style="stroke:#181818;stroke-width:1.0;"/><line style="stroke:#181818;stroke-width:1.0;" x1="24" x2="24" y1="62" y2="218.9375"/><line style="stroke:#181818;stroke-width:1.0;" x1="24" x2="103.5" y1="218.9375" y2="218.9375"/><line style="stroke:#181818;stroke-width:1.0;" x1="103.5" x2="103.5" y1="218.9375" y2="238.9375"/><polygon fill="#181818" points="99.5,228.9375,103.5,238.9375,107.5,228.9375,103.5,232.9375" style="stroke:#181818;stroke-width:1.0;"/><line style="stroke:#181818;stroke-width:1.0;" x1="103.5" x2="103.5" y1="30" y2="50"/><polygon fill="#181818" points="99.5,40,103.5,50,107.5,40,103.5,44" style="stroke:#181818;stroke-width:1.0;"/><line style="stroke:#181818;stroke-width:1.0;" x1="78" x2="62.25" y1="250.9375" y2="250.9375"/><line style="stroke:#181818;stroke-width:1.0;" x1="62.25" x2="62.25" y1="250.9375" y2="272.9375"/><polygon fill="#181818" points="58.25,262.9375,62.25,272.9375,66.25,262.9375,62.25,266.9375" style="stroke:#181818;stroke-width:1.0;"/><line style="stroke:#181818;stroke-width:1.0;" x1="129" x2="144.75" y1="250.9375" y2="250.9375"/><line style="stroke:#181818;stroke-width:1.0;" x1="144.75" x2="144.75" y1="250.9375" y2="272.9375"/><polygon fill="#181818" points="140.75,262.9375,144.75,272.9375,148.75,262.9375,144.75,266.9375" style="stroke:#181818;stroke-width:1.0;"/><line style="stroke:#181818;stroke-width:1.0;" x1="62.25" x2="62.25" y1="306.9063" y2="324.9063"/><line style="stroke:#181818;stroke-width:1.0;" x1="62.25" x2="91.5" y1="324.9063" y2="324.9063"/><polygon fill="#181818" points="81.5,320.9063,91.5,324.9063,81.5,328.9063,85.5,324.9063" style="stroke:#181818;stroke-width:1.0;"/><line style="stroke:#181818;stroke-width:1.0;" x1="144.75" x2="144.75" y1="306.9063" y2="324.9063"/><line style="stroke:#181818;stroke-width:1.0;" x1="144.75" x2="115.5" y1="324.9063" y2="324.9063"/><polygon fill="#181818" points="125.5,320.9063,115.5,324.9063,125.5,328.9063,121.5,324.9063" style="stroke:#181818;stroke-width:1.0;"/><line style="stroke:#181818;stroke-width:1.0;" x1="103.5" x2="103.5" y1="336.9063" y2="356.9063"/><polygon fill="#181818" points="99.5,346.9063,103.5,356.9063,107.5,346.9063,103.5,350.9063" style="stroke:#181818;stroke-width:1.0;"/><!--MD5=[56aedf1a6b845e8d69aa1bf337619d85]
@startuml
start
	while (data available?)
	:read data;
	:generate diagrams;
	endwhile
	if (a> b)
	: do aaa;
	else
	: do bb;
	endif
	stop
@enduml

PlantUML version 1.2022.6beta2(Unknown compile time)
(GPL source distribution)
Java Runtime: Java(TM) SE Runtime Environment
JVM: Java HotSpot(TM) 64-Bit Server VM
Default Encoding: UTF-8
Language: en
Country: US
--></g></svg>