<?xml version="1.0" encoding="UTF-8" standalone="no"?><svg xmlns="http://www.w3.org/2000/svg" xmlns:xlink="http://www.w3.org/1999/xlink" contentStyleType="text/css" height="456px" preserveAspectRatio="none" style="width:1467px;height:456px;background:#FFFFFF;" version="1.1" viewBox="0 0 1467 456" width="1467px" zoomAndPan="magnify"><defs/><g><!--MD5=[3c9119cd8729667b94a6ccaed68ba0c9]
class ILineProcessor--><g id="elem_ILineProcessor"><rect codeLine="5" fill="#F1F1F1" height="96.8906" id="ILineProcessor" rx="2.5" ry="2.5" style="stroke:#181818;stroke-width:0.5;" width="213" x="627" y="196"/><ellipse cx="677.75" cy="212" fill="#B4A7E5" rx="11" ry="11" style="stroke:#181818;stroke-width:1.0;"/><path d="M678.7031,208.7813 L680.4219,208.7813 C680.8125,208.7813 681,208.75 681.125,208.6719 C681.3906,208.5156 681.5313,208.2344 681.5313,207.9375 C681.5313,207.6719 681.4219,207.4063 681.1875,207.2344 C681.0156,207.125 680.875,207.0938 680.4219,207.0938 L675.2813,207.0938 C674.8438,207.0938 674.7188,207.1094 674.5625,207.2031 C674.3125,207.3594 674.1563,207.6563 674.1563,207.9375 C674.1563,208.2188 674.2969,208.4688 674.5156,208.6406 C674.6719,208.75 674.8594,208.7813 675.2813,208.7813 L677,208.7813 L677,215.2969 L675.2813,215.2969 C674.8438,215.2969 674.7188,215.3125 674.5625,215.4219 C674.3125,215.5781 674.1563,215.8594 674.1563,216.1563 C674.1563,216.4063 674.2969,216.6719 674.5156,216.8281 C674.6719,216.9531 674.875,217 675.2813,217 L680.4219,217 C681.1719,217 681.5313,216.7188 681.5313,216.1563 C681.5313,215.875 681.4219,215.625 681.1875,215.4531 C681.0156,215.3281 680.875,215.2969 680.4219,215.2969 L678.7031,215.2969 L678.7031,208.7813 Z " fill="#000000"/><text fill="#000000" font-family="sans-serif" font-size="14" font-style="italic" lengthAdjust="spacing" textLength="103" x="698.25" y="216.8467">ILineProcessor</text><line style="stroke:#181818;stroke-width:0.5;" x1="628" x2="839" y1="228" y2="228"/><line style="stroke:#181818;stroke-width:0.5;" x1="628" x2="839" y1="236" y2="236"/><text fill="#000000" font-family="sans-serif" font-size="14" lengthAdjust="spacing" textLength="201" x="633" y="252.9951">void process(String, Object)</text><text fill="#000000" font-family="sans-serif" font-size="14" lengthAdjust="spacing" textLength="129" x="633" y="269.292">void beforeRead()</text><text fill="#000000" font-family="sans-serif" font-size="14" lengthAdjust="spacing" textLength="116" x="633" y="285.5889">void afterRead()</text></g><!--MD5=[84718776d214be480e4c259efcb737fc]
class Main--><g id="elem_Main"><rect codeLine="6" fill="#F1F1F1" height="64.2969" id="Main" rx="2.5" ry="2.5" style="stroke:#181818;stroke-width:0.5;" width="135" x="913" y="39.5"/><ellipse cx="959.75" cy="55.5" fill="#ADD1B2" rx="11" ry="11" style="stroke:#181818;stroke-width:1.0;"/><path d="M962.0938,51.1719 C961.1563,50.7344 960.5625,50.5938 959.6875,50.5938 C957.0625,50.5938 955.0625,52.6719 955.0625,55.3906 L955.0625,56.5156 C955.0625,59.0938 957.1719,60.9844 960.0625,60.9844 C961.2813,60.9844 962.4375,60.6875 963.1875,60.1406 C963.7656,59.7344 964.0938,59.2813 964.0938,58.8906 C964.0938,58.4375 963.7031,58.0469 963.2344,58.0469 C963.0156,58.0469 962.8125,58.125 962.625,58.3125 C962.1719,58.7969 962.1719,58.7969 961.9844,58.8906 C961.5625,59.1563 960.875,59.2813 960.1094,59.2813 C958.0625,59.2813 956.7656,58.1875 956.7656,56.4844 L956.7656,55.3906 C956.7656,53.6094 958.0156,52.2969 959.75,52.2969 C960.3281,52.2969 960.9375,52.4531 961.4063,52.7031 C961.8906,52.9844 962.0625,53.2031 962.1563,53.6094 C962.2188,54.0156 962.25,54.1406 962.3906,54.2656 C962.5313,54.4063 962.7656,54.5156 962.9844,54.5156 C963.25,54.5156 963.5156,54.375 963.6875,54.1563 C963.7969,54 963.8281,53.8125 963.8281,53.3906 L963.8281,51.9688 C963.8281,51.5313 963.8125,51.4063 963.7188,51.25 C963.5625,50.9844 963.2813,50.8438 962.9844,50.8438 C962.6875,50.8438 962.4844,50.9375 962.2656,51.25 L962.0938,51.1719 Z " fill="#000000"/><text fill="#000000" font-family="sans-serif" font-size="14" lengthAdjust="spacing" textLength="33" x="980.25" y="60.3467">Main</text><line style="stroke:#181818;stroke-width:0.5;" x1="914" x2="1047" y1="71.5" y2="71.5"/><line style="stroke:#181818;stroke-width:0.5;" x1="914" x2="1047" y1="79.5" y2="79.5"/><text fill="#000000" font-family="sans-serif" font-size="14" lengthAdjust="spacing" textLength="123" x="919" y="96.4951">void main(String)</text></g><!--MD5=[31b83e676831eadb4a783ad92665ccba]
class TLPer--><g id="elem_TLPer"><rect codeLine="7" fill="#F1F1F1" height="129.4844" id="TLPer" rx="2.5" ry="2.5" style="stroke:#181818;stroke-width:0.5;" width="288" x="589.5" y="7"/><ellipse cx="708.75" cy="23" fill="#ADD1B2" rx="11" ry="11" style="stroke:#181818;stroke-width:1.0;"/><path d="M711.0938,18.6719 C710.1563,18.2344 709.5625,18.0938 708.6875,18.0938 C706.0625,18.0938 704.0625,20.1719 704.0625,22.8906 L704.0625,24.0156 C704.0625,26.5938 706.1719,28.4844 709.0625,28.4844 C710.2813,28.4844 711.4375,28.1875 712.1875,27.6406 C712.7656,27.2344 713.0938,26.7813 713.0938,26.3906 C713.0938,25.9375 712.7031,25.5469 712.2344,25.5469 C712.0156,25.5469 711.8125,25.625 711.625,25.8125 C711.1719,26.2969 711.1719,26.2969 710.9844,26.3906 C710.5625,26.6563 709.875,26.7813 709.1094,26.7813 C707.0625,26.7813 705.7656,25.6875 705.7656,23.9844 L705.7656,22.8906 C705.7656,21.1094 707.0156,19.7969 708.75,19.7969 C709.3281,19.7969 709.9375,19.9531 710.4063,20.2031 C710.8906,20.4844 711.0625,20.7031 711.1563,21.1094 C711.2188,21.5156 711.25,21.6406 711.3906,21.7656 C711.5313,21.9063 711.7656,22.0156 711.9844,22.0156 C712.25,22.0156 712.5156,21.875 712.6875,21.6563 C712.7969,21.5 712.8281,21.3125 712.8281,20.8906 L712.8281,19.4688 C712.8281,19.0313 712.8125,18.9063 712.7188,18.75 C712.5625,18.4844 712.2813,18.3438 711.9844,18.3438 C711.6875,18.3438 711.4844,18.4375 711.2656,18.75 L711.0938,18.6719 Z " fill="#000000"/><text fill="#000000" font-family="sans-serif" font-size="14" lengthAdjust="spacing" textLength="41" x="729.25" y="27.8467">TLPer</text><line style="stroke:#181818;stroke-width:0.5;" x1="590.5" x2="876.5" y1="39" y2="39"/><line style="stroke:#181818;stroke-width:0.5;" x1="590.5" x2="876.5" y1="47" y2="47"/><text fill="#000000" font-family="sans-serif" font-size="14" lengthAdjust="spacing" textLength="224" x="595.5" y="63.9951">void read(InputStream, Object)</text><text fill="#000000" font-family="sans-serif" font-size="14" lengthAdjust="spacing" textLength="276" x="595.5" y="80.292">void read(InputStream, String, Object)</text><text fill="#000000" font-family="sans-serif" font-size="14" lengthAdjust="spacing" textLength="167" x="595.5" y="96.5889">void read(InputStream)</text><text fill="#000000" font-family="sans-serif" font-size="14" lengthAdjust="spacing" textLength="101" x="595.5" y="112.8857">void read(File)</text><text fill="#000000" font-family="sans-serif" font-size="14" lengthAdjust="spacing" textLength="120" x="595.5" y="129.1826">void read(String)</text></g><!--MD5=[797e323ae55e9ed73d7a2148cbf3bc7a]
class Plantuml--><g id="elem_Plantuml"><rect codeLine="11" fill="#F1F1F1" height="96.8906" id="Plantuml" rx="2.5" ry="2.5" style="stroke:#181818;stroke-width:0.5;" width="213" x="7" y="353"/><ellipse cx="77.75" cy="369" fill="#ADD1B2" rx="11" ry="11" style="stroke:#181818;stroke-width:1.0;"/><path d="M80.0938,364.6719 C79.1563,364.2344 78.5625,364.0938 77.6875,364.0938 C75.0625,364.0938 73.0625,366.1719 73.0625,368.8906 L73.0625,370.0156 C73.0625,372.5938 75.1719,374.4844 78.0625,374.4844 C79.2813,374.4844 80.4375,374.1875 81.1875,373.6406 C81.7656,373.2344 82.0938,372.7813 82.0938,372.3906 C82.0938,371.9375 81.7031,371.5469 81.2344,371.5469 C81.0156,371.5469 80.8125,371.625 80.625,371.8125 C80.1719,372.2969 80.1719,372.2969 79.9844,372.3906 C79.5625,372.6563 78.875,372.7813 78.1094,372.7813 C76.0625,372.7813 74.7656,371.6875 74.7656,369.9844 L74.7656,368.8906 C74.7656,367.1094 76.0156,365.7969 77.75,365.7969 C78.3281,365.7969 78.9375,365.9531 79.4063,366.2031 C79.8906,366.4844 80.0625,366.7031 80.1563,367.1094 C80.2188,367.5156 80.25,367.6406 80.3906,367.7656 C80.5313,367.9063 80.7656,368.0156 80.9844,368.0156 C81.25,368.0156 81.5156,367.875 81.6875,367.6563 C81.7969,367.5 81.8281,367.3125 81.8281,366.8906 L81.8281,365.4688 C81.8281,365.0313 81.8125,364.9063 81.7188,364.75 C81.5625,364.4844 81.2813,364.3438 80.9844,364.3438 C80.6875,364.3438 80.4844,364.4375 80.2656,364.75 L80.0938,364.6719 Z " fill="#000000"/><text fill="#000000" font-family="sans-serif" font-size="14" lengthAdjust="spacing" textLength="63" x="98.25" y="373.8467">Plantuml</text><line style="stroke:#181818;stroke-width:0.5;" x1="8" x2="219" y1="385" y2="385"/><line style="stroke:#181818;stroke-width:0.5;" x1="8" x2="219" y1="393" y2="393"/><text fill="#000000" font-family="sans-serif" font-size="14" lengthAdjust="spacing" textLength="129" x="13" y="409.9951">void beforeRead()</text><text fill="#000000" font-family="sans-serif" font-size="14" lengthAdjust="spacing" textLength="201" x="13" y="426.292">void process(String, Object)</text><text fill="#000000" font-family="sans-serif" font-size="14" lengthAdjust="spacing" textLength="116" x="13" y="442.5889">void afterRead()</text></g><!--MD5=[ec2339f50b6f7c3747abc5facdd64e0d]
class PrintLine--><g id="elem_PrintLine"><rect codeLine="12" fill="#F1F1F1" height="96.8906" id="PrintLine" rx="2.5" ry="2.5" style="stroke:#181818;stroke-width:0.5;" width="213" x="255" y="353"/><ellipse cx="324.75" cy="369" fill="#ADD1B2" rx="11" ry="11" style="stroke:#181818;stroke-width:1.0;"/><path d="M327.0938,364.6719 C326.1563,364.2344 325.5625,364.0938 324.6875,364.0938 C322.0625,364.0938 320.0625,366.1719 320.0625,368.8906 L320.0625,370.0156 C320.0625,372.5938 322.1719,374.4844 325.0625,374.4844 C326.2813,374.4844 327.4375,374.1875 328.1875,373.6406 C328.7656,373.2344 329.0938,372.7813 329.0938,372.3906 C329.0938,371.9375 328.7031,371.5469 328.2344,371.5469 C328.0156,371.5469 327.8125,371.625 327.625,371.8125 C327.1719,372.2969 327.1719,372.2969 326.9844,372.3906 C326.5625,372.6563 325.875,372.7813 325.1094,372.7813 C323.0625,372.7813 321.7656,371.6875 321.7656,369.9844 L321.7656,368.8906 C321.7656,367.1094 323.0156,365.7969 324.75,365.7969 C325.3281,365.7969 325.9375,365.9531 326.4063,366.2031 C326.8906,366.4844 327.0625,366.7031 327.1563,367.1094 C327.2188,367.5156 327.25,367.6406 327.3906,367.7656 C327.5313,367.9063 327.7656,368.0156 327.9844,368.0156 C328.25,368.0156 328.5156,367.875 328.6875,367.6563 C328.7969,367.5 328.8281,367.3125 328.8281,366.8906 L328.8281,365.4688 C328.8281,365.0313 328.8125,364.9063 328.7188,364.75 C328.5625,364.4844 328.2813,364.3438 327.9844,364.3438 C327.6875,364.3438 327.4844,364.4375 327.2656,364.75 L327.0938,364.6719 Z " fill="#000000"/><text fill="#000000" font-family="sans-serif" font-size="14" lengthAdjust="spacing" textLength="65" x="345.25" y="373.8467">PrintLine</text><line style="stroke:#181818;stroke-width:0.5;" x1="256" x2="467" y1="385" y2="385"/><line style="stroke:#181818;stroke-width:0.5;" x1="256" x2="467" y1="393" y2="393"/><text fill="#000000" font-family="sans-serif" font-size="14" lengthAdjust="spacing" textLength="201" x="261" y="409.9951">void process(String, Object)</text><text fill="#000000" font-family="sans-serif" font-size="14" lengthAdjust="spacing" textLength="129" x="261" y="426.292">void beforeRead()</text><text fill="#000000" font-family="sans-serif" font-size="14" lengthAdjust="spacing" textLength="116" x="261" y="442.5889">void afterRead()</text></g><!--MD5=[bde0e0d8058054aa10fcf6595c067b66]
class GroupMediaFile--><g id="elem_GroupMediaFile"><rect codeLine="13" fill="#F1F1F1" height="96.8906" id="GroupMediaFile" rx="2.5" ry="2.5" style="stroke:#181818;stroke-width:0.5;" width="213" x="503" y="353"/><ellipse cx="549.75" cy="369" fill="#ADD1B2" rx="11" ry="11" style="stroke:#181818;stroke-width:1.0;"/><path d="M552.0938,364.6719 C551.1563,364.2344 550.5625,364.0938 549.6875,364.0938 C547.0625,364.0938 545.0625,366.1719 545.0625,368.8906 L545.0625,370.0156 C545.0625,372.5938 547.1719,374.4844 550.0625,374.4844 C551.2813,374.4844 552.4375,374.1875 553.1875,373.6406 C553.7656,373.2344 554.0938,372.7813 554.0938,372.3906 C554.0938,371.9375 553.7031,371.5469 553.2344,371.5469 C553.0156,371.5469 552.8125,371.625 552.625,371.8125 C552.1719,372.2969 552.1719,372.2969 551.9844,372.3906 C551.5625,372.6563 550.875,372.7813 550.1094,372.7813 C548.0625,372.7813 546.7656,371.6875 546.7656,369.9844 L546.7656,368.8906 C546.7656,367.1094 548.0156,365.7969 549.75,365.7969 C550.3281,365.7969 550.9375,365.9531 551.4063,366.2031 C551.8906,366.4844 552.0625,366.7031 552.1563,367.1094 C552.2188,367.5156 552.25,367.6406 552.3906,367.7656 C552.5313,367.9063 552.7656,368.0156 552.9844,368.0156 C553.25,368.0156 553.5156,367.875 553.6875,367.6563 C553.7969,367.5 553.8281,367.3125 553.8281,366.8906 L553.8281,365.4688 C553.8281,365.0313 553.8125,364.9063 553.7188,364.75 C553.5625,364.4844 553.2813,364.3438 552.9844,364.3438 C552.6875,364.3438 552.4844,364.4375 552.2656,364.75 L552.0938,364.6719 Z " fill="#000000"/><text fill="#000000" font-family="sans-serif" font-size="14" lengthAdjust="spacing" textLength="111" x="570.25" y="373.8467">GroupMediaFile</text><line style="stroke:#181818;stroke-width:0.5;" x1="504" x2="715" y1="385" y2="385"/><line style="stroke:#181818;stroke-width:0.5;" x1="504" x2="715" y1="393" y2="393"/><text fill="#000000" font-family="sans-serif" font-size="14" lengthAdjust="spacing" textLength="129" x="509" y="409.9951">void beforeRead()</text><text fill="#000000" font-family="sans-serif" font-size="14" lengthAdjust="spacing" textLength="201" x="509" y="426.292">void process(String, Object)</text><text fill="#000000" font-family="sans-serif" font-size="14" lengthAdjust="spacing" textLength="116" x="509" y="442.5889">void afterRead()</text></g><!--MD5=[2067c3a398573f3de17987535af4da71]
class WordSplit--><g id="elem_WordSplit"><rect codeLine="14" fill="#F1F1F1" height="96.8906" id="WordSplit" rx="2.5" ry="2.5" style="stroke:#181818;stroke-width:0.5;" width="213" x="751" y="353"/><ellipse cx="817.25" cy="369" fill="#ADD1B2" rx="11" ry="11" style="stroke:#181818;stroke-width:1.0;"/><path d="M819.5938,364.6719 C818.6563,364.2344 818.0625,364.0938 817.1875,364.0938 C814.5625,364.0938 812.5625,366.1719 812.5625,368.8906 L812.5625,370.0156 C812.5625,372.5938 814.6719,374.4844 817.5625,374.4844 C818.7813,374.4844 819.9375,374.1875 820.6875,373.6406 C821.2656,373.2344 821.5938,372.7813 821.5938,372.3906 C821.5938,371.9375 821.2031,371.5469 820.7344,371.5469 C820.5156,371.5469 820.3125,371.625 820.125,371.8125 C819.6719,372.2969 819.6719,372.2969 819.4844,372.3906 C819.0625,372.6563 818.375,372.7813 817.6094,372.7813 C815.5625,372.7813 814.2656,371.6875 814.2656,369.9844 L814.2656,368.8906 C814.2656,367.1094 815.5156,365.7969 817.25,365.7969 C817.8281,365.7969 818.4375,365.9531 818.9063,366.2031 C819.3906,366.4844 819.5625,366.7031 819.6563,367.1094 C819.7188,367.5156 819.75,367.6406 819.8906,367.7656 C820.0313,367.9063 820.2656,368.0156 820.4844,368.0156 C820.75,368.0156 821.0156,367.875 821.1875,367.6563 C821.2969,367.5 821.3281,367.3125 821.3281,366.8906 L821.3281,365.4688 C821.3281,365.0313 821.3125,364.9063 821.2188,364.75 C821.0625,364.4844 820.7813,364.3438 820.4844,364.3438 C820.1875,364.3438 819.9844,364.4375 819.7656,364.75 L819.5938,364.6719 Z " fill="#000000"/><text fill="#000000" font-family="sans-serif" font-size="14" lengthAdjust="spacing" textLength="72" x="837.75" y="373.8467">WordSplit</text><line style="stroke:#181818;stroke-width:0.5;" x1="752" x2="963" y1="385" y2="385"/><line style="stroke:#181818;stroke-width:0.5;" x1="752" x2="963" y1="393" y2="393"/><text fill="#000000" font-family="sans-serif" font-size="14" lengthAdjust="spacing" textLength="129" x="757" y="409.9951">void beforeRead()</text><text fill="#000000" font-family="sans-serif" font-size="14" lengthAdjust="spacing" textLength="201" x="757" y="426.292">void process(String, Object)</text><text fill="#000000" font-family="sans-serif" font-size="14" lengthAdjust="spacing" textLength="116" x="757" y="442.5889">void afterRead()</text></g><!--MD5=[f7b5559b58047f07f5c0f2e1f1b02107]
class EnglishExamination--><g id="elem_EnglishExamination"><rect codeLine="15" fill="#F1F1F1" height="96.8906" id="EnglishExamination" rx="2.5" ry="2.5" style="stroke:#181818;stroke-width:0.5;" width="213" x="999" y="353"/><ellipse cx="1032.45" cy="369" fill="#ADD1B2" rx="11" ry="11" style="stroke:#181818;stroke-width:1.0;"/><path d="M1034.7938,364.6719 C1033.8563,364.2344 1033.2625,364.0938 1032.3875,364.0938 C1029.7625,364.0938 1027.7625,366.1719 1027.7625,368.8906 L1027.7625,370.0156 C1027.7625,372.5938 1029.8719,374.4844 1032.7625,374.4844 C1033.9813,374.4844 1035.1375,374.1875 1035.8875,373.6406 C1036.4656,373.2344 1036.7938,372.7813 1036.7938,372.3906 C1036.7938,371.9375 1036.4031,371.5469 1035.9344,371.5469 C1035.7156,371.5469 1035.5125,371.625 1035.325,371.8125 C1034.8719,372.2969 1034.8719,372.2969 1034.6844,372.3906 C1034.2625,372.6563 1033.575,372.7813 1032.8094,372.7813 C1030.7625,372.7813 1029.4656,371.6875 1029.4656,369.9844 L1029.4656,368.8906 C1029.4656,367.1094 1030.7156,365.7969 1032.45,365.7969 C1033.0281,365.7969 1033.6375,365.9531 1034.1063,366.2031 C1034.5906,366.4844 1034.7625,366.7031 1034.8563,367.1094 C1034.9188,367.5156 1034.95,367.6406 1035.0906,367.7656 C1035.2313,367.9063 1035.4656,368.0156 1035.6844,368.0156 C1035.95,368.0156 1036.2156,367.875 1036.3875,367.6563 C1036.4969,367.5 1036.5281,367.3125 1036.5281,366.8906 L1036.5281,365.4688 C1036.5281,365.0313 1036.5125,364.9063 1036.4188,364.75 C1036.2625,364.4844 1035.9813,364.3438 1035.6844,364.3438 C1035.3875,364.3438 1035.1844,364.4375 1034.9656,364.75 L1034.7938,364.6719 Z " fill="#000000"/><text fill="#000000" font-family="sans-serif" font-size="14" lengthAdjust="spacing" textLength="140" x="1050.55" y="373.8467">EnglishExamination</text><line style="stroke:#181818;stroke-width:0.5;" x1="1000" x2="1211" y1="385" y2="385"/><line style="stroke:#181818;stroke-width:0.5;" x1="1000" x2="1211" y1="393" y2="393"/><text fill="#000000" font-family="sans-serif" font-size="14" lengthAdjust="spacing" textLength="129" x="1005" y="409.9951">void beforeRead()</text><text fill="#000000" font-family="sans-serif" font-size="14" lengthAdjust="spacing" textLength="201" x="1005" y="426.292">void process(String, Object)</text><text fill="#000000" font-family="sans-serif" font-size="14" lengthAdjust="spacing" textLength="116" x="1005" y="442.5889">void afterRead()</text></g><!--MD5=[2a5a6962d4aa302eface62fc7fbc1417]
class EnglishTest--><g id="elem_EnglishTest"><rect codeLine="16" fill="#F1F1F1" height="96.8906" id="EnglishTest" rx="2.5" ry="2.5" style="stroke:#181818;stroke-width:0.5;" width="213" x="1247" y="353"/><ellipse cx="1307.75" cy="369" fill="#ADD1B2" rx="11" ry="11" style="stroke:#181818;stroke-width:1.0;"/><path d="M1310.0938,364.6719 C1309.1563,364.2344 1308.5625,364.0938 1307.6875,364.0938 C1305.0625,364.0938 1303.0625,366.1719 1303.0625,368.8906 L1303.0625,370.0156 C1303.0625,372.5938 1305.1719,374.4844 1308.0625,374.4844 C1309.2813,374.4844 1310.4375,374.1875 1311.1875,373.6406 C1311.7656,373.2344 1312.0938,372.7813 1312.0938,372.3906 C1312.0938,371.9375 1311.7031,371.5469 1311.2344,371.5469 C1311.0156,371.5469 1310.8125,371.625 1310.625,371.8125 C1310.1719,372.2969 1310.1719,372.2969 1309.9844,372.3906 C1309.5625,372.6563 1308.875,372.7813 1308.1094,372.7813 C1306.0625,372.7813 1304.7656,371.6875 1304.7656,369.9844 L1304.7656,368.8906 C1304.7656,367.1094 1306.0156,365.7969 1307.75,365.7969 C1308.3281,365.7969 1308.9375,365.9531 1309.4063,366.2031 C1309.8906,366.4844 1310.0625,366.7031 1310.1563,367.1094 C1310.2188,367.5156 1310.25,367.6406 1310.3906,367.7656 C1310.5313,367.9063 1310.7656,368.0156 1310.9844,368.0156 C1311.25,368.0156 1311.5156,367.875 1311.6875,367.6563 C1311.7969,367.5 1311.8281,367.3125 1311.8281,366.8906 L1311.8281,365.4688 C1311.8281,365.0313 1311.8125,364.9063 1311.7188,364.75 C1311.5625,364.4844 1311.2813,364.3438 1310.9844,364.3438 C1310.6875,364.3438 1310.4844,364.4375 1310.2656,364.75 L1310.0938,364.6719 Z " fill="#000000"/><text fill="#000000" font-family="sans-serif" font-size="14" lengthAdjust="spacing" textLength="83" x="1328.25" y="373.8467">EnglishTest</text><line style="stroke:#181818;stroke-width:0.5;" x1="1248" x2="1459" y1="385" y2="385"/><line style="stroke:#181818;stroke-width:0.5;" x1="1248" x2="1459" y1="393" y2="393"/><text fill="#000000" font-family="sans-serif" font-size="14" lengthAdjust="spacing" textLength="129" x="1253" y="409.9951">void beforeRead()</text><text fill="#000000" font-family="sans-serif" font-size="14" lengthAdjust="spacing" textLength="201" x="1253" y="426.292">void process(String, Object)</text><text fill="#000000" font-family="sans-serif" font-size="14" lengthAdjust="spacing" textLength="116" x="1253" y="442.5889">void afterRead()</text></g><!--MD5=[977ae11ee8b4ec914e53b14a00b738b3]
link TLPer to ILineProcessor--><g id="link_TLPer_ILineProcessor"><path codeLine="23" d="M733.5,136.174 C733.5,154.073 733.5,173.34 733.5,190.542 " fill="none" id="TLPer-to-ILineProcessor" style="stroke:#181818;stroke-width:1.0;"/><polygon fill="#181818" points="733.5,195.81,737.5,186.81,733.5,190.81,729.5,186.81,733.5,195.81" style="stroke:#181818;stroke-width:1.0;"/><text fill="#000000" font-family="sans-serif" font-size="13" lengthAdjust="spacing" textLength="7" x="726.0078" y="184.9922">*</text></g><!--MD5=[2b88e43bdea18fed24faf45e6150b33f]
reverse link ILineProcessor to EnglishTest--><g id="link_ILineProcessor_EnglishTest"><path codeLine="31" d="M860.074,267.419 C961.11,286.231 1105.74,316.118 1229.5,353 C1235.24,354.7118 1241.1,356.5659 1246.99,358.5156 " fill="none" id="ILineProcessor-backto-EnglishTest" style="stroke:#181818;stroke-width:1.0;stroke-dasharray:7.0,7.0;"/><polygon fill="none" points="858.551,274.256,840.151,263.747,861.088,260.488,858.551,274.256" style="stroke:#181818;stroke-width:1.0;"/></g><!--MD5=[34f13880bd05b66d0831f9ac43d8a5ec]
reverse link ILineProcessor to Plantuml--><g id="link_ILineProcessor_Plantuml"><path codeLine="37" d="M606.926,267.419 C505.89,286.231 361.261,316.118 237.5,353 C231.756,354.7118 225.899,356.5659 220.013,358.5156 " fill="none" id="ILineProcessor-backto-Plantuml" style="stroke:#181818;stroke-width:1.0;stroke-dasharray:7.0,7.0;"/><polygon fill="none" points="605.912,260.488,626.849,263.747,608.449,274.256,605.912,260.488" style="stroke:#181818;stroke-width:1.0;"/></g><!--MD5=[563e4127bf04b7d8d2b328b24ac0cd52]
reverse link ILineProcessor to WordSplit--><g id="link_ILineProcessor_WordSplit"><path codeLine="43" d="M784.559,309.324 C796.217,323.896 808.407,339.133 819.41,352.8879 " fill="none" id="ILineProcessor-backto-WordSplit" style="stroke:#181818;stroke-width:1.0;stroke-dasharray:7.0,7.0;"/><polygon fill="none" points="778.744,313.26,771.716,293.27,789.676,304.514,778.744,313.26" style="stroke:#181818;stroke-width:1.0;"/></g><!--MD5=[83053ff4edd623b4014fd47d05bf9f66]
reverse link ILineProcessor to GroupMediaFile--><g id="link_ILineProcessor_GroupMediaFile"><path codeLine="49" d="M682.441,309.324 C670.783,323.896 658.593,339.133 647.59,352.8879 " fill="none" id="ILineProcessor-backto-GroupMediaFile" style="stroke:#181818;stroke-width:1.0;stroke-dasharray:7.0,7.0;"/><polygon fill="none" points="677.324,304.514,695.284,293.27,688.256,313.26,677.324,304.514" style="stroke:#181818;stroke-width:1.0;"/></g><!--MD5=[479d3ea52e6a975dbfe9131fde4bc554]
reverse link ILineProcessor to PrintLine--><g id="link_ILineProcessor_PrintLine"><path codeLine="58" d="M608.427,297.614 C562.899,316.584 511.896,337.835 468.116,356.0767 " fill="none" id="ILineProcessor-backto-PrintLine" style="stroke:#181818;stroke-width:1.0;stroke-dasharray:7.0,7.0;"/><polygon fill="none" points="605.746,291.148,626.9,289.917,611.131,304.071,605.746,291.148" style="stroke:#181818;stroke-width:1.0;"/></g><!--MD5=[a1688bf174a43b0955d98b73171e41dd]
reverse link ILineProcessor to EnglishExamination--><g id="link_ILineProcessor_EnglishExamination"><path codeLine="69" d="M858.573,297.614 C904.101,316.584 955.104,337.835 998.884,356.0767 " fill="none" id="ILineProcessor-backto-EnglishExamination" style="stroke:#181818;stroke-width:1.0;stroke-dasharray:7.0,7.0;"/><polygon fill="none" points="855.869,304.071,840.1,289.917,861.254,291.148,855.869,304.071" style="stroke:#181818;stroke-width:1.0;"/></g><!--MD5=[8869dddbd268f48e09dd3d52632a7950]
@startuml
' definitions
' - - - - - - - - - - -

' package "com.ztools.textlineprocessor"
interface ILineProcessor
class Main
class TLPer
' end package

' package "com.ztools.textlineprocessor.def"
class Plantuml
class PrintLine
class GroupMediaFile
class WordSplit
class EnglishExamination
class EnglishTest
' end package

' content
' - - - - - - -

' TLPer:
TLPer - -> "*" ILineProcessor
TLPer : void read(InputStream, Object)
TLPer : void read(InputStream, String, Object)
TLPer : void read(InputStream)
TLPer : void read(File)
TLPer : void read(String)

' EnglishTest:
ILineProcessor <|.. EnglishTest
EnglishTest : void beforeRead()
EnglishTest : void process(String, Object)
EnglishTest : void afterRead()

' Plantuml:
ILineProcessor <|.. Plantuml
Plantuml : void beforeRead()
Plantuml : void process(String, Object)
Plantuml : void afterRead()

' WordSplit:
ILineProcessor <|.. WordSplit
WordSplit : void beforeRead()
WordSplit : void process(String, Object)
WordSplit : void afterRead()

' GroupMediaFile:
ILineProcessor <|.. GroupMediaFile
GroupMediaFile : void beforeRead()
GroupMediaFile : void process(String, Object)
GroupMediaFile : void afterRead()

' Main:
Main : void main(String)

' PrintLine:
ILineProcessor <|.. PrintLine
PrintLine : void process(String, Object)
PrintLine : void beforeRead()
PrintLine : void afterRead()

' ILineProcessor:
ILineProcessor : void process(String, Object)
ILineProcessor : void beforeRead()
ILineProcessor : void afterRead()

' EnglishExamination:
ILineProcessor <|.. EnglishExamination
EnglishExamination : void beforeRead()
EnglishExamination : void process(String, Object)
EnglishExamination : void afterRead()
@enduml

@startuml

interface ILineProcessor
class Main
class TLPer

class Plantuml
class PrintLine
class GroupMediaFile
class WordSplit
class EnglishExamination
class EnglishTest


TLPer - -> "*" ILineProcessor
TLPer : void read(InputStream, Object)
TLPer : void read(InputStream, String, Object)
TLPer : void read(InputStream)
TLPer : void read(File)
TLPer : void read(String)

ILineProcessor <|.. EnglishTest
EnglishTest : void beforeRead()
EnglishTest : void process(String, Object)
EnglishTest : void afterRead()

ILineProcessor <|.. Plantuml
Plantuml : void beforeRead()
Plantuml : void process(String, Object)
Plantuml : void afterRead()

ILineProcessor <|.. WordSplit
WordSplit : void beforeRead()
WordSplit : void process(String, Object)
WordSplit : void afterRead()

ILineProcessor <|.. GroupMediaFile
GroupMediaFile : void beforeRead()
GroupMediaFile : void process(String, Object)
GroupMediaFile : void afterRead()

Main : void main(String)

ILineProcessor <|.. PrintLine
PrintLine : void process(String, Object)
PrintLine : void beforeRead()
PrintLine : void afterRead()

ILineProcessor : void process(String, Object)
ILineProcessor : void beforeRead()
ILineProcessor : void afterRead()

ILineProcessor <|.. EnglishExamination
EnglishExamination : void beforeRead()
EnglishExamination : void process(String, Object)
EnglishExamination : void afterRead()
@enduml

PlantUML version 1.2022.6beta2(Unknown compile time)
(GPL source distribution)
Java Runtime: Java(TM) SE Runtime Environment
JVM: Java HotSpot(TM) 64-Bit Server VM
Default Encoding: UTF-8
Language: en
Country: US
--></g></svg>