<?xml version="1.0" encoding="UTF-8" standalone="no"?><svg xmlns="http://www.w3.org/2000/svg" xmlns:xlink="http://www.w3.org/1999/xlink" contentStyleType="text/css" height="219px" preserveAspectRatio="none" style="width:138px;height:219px;background:#FFFFFF;" version="1.1" viewBox="0 0 138 219" width="138px" zoomAndPan="magnify"><defs/><g><!--MD5=[3fd616f346a44cd59a91eb10b19e157c]
class User--><g id="elem_User"><rect codeLine="1" fill="#F1F1F1" height="96.8906" id="User" rx="2.5" ry="2.5" style="stroke:#181818;stroke-width:0.5;" width="124" x="7" y="7"/><ellipse cx="49.45" cy="23" fill="#ADD1B2" rx="11" ry="11" style="stroke:#181818;stroke-width:1.0;"/><path d="M51.7938,18.6719 C50.8563,18.2344 50.2625,18.0938 49.3875,18.0938 C46.7625,18.0938 44.7625,20.1719 44.7625,22.8906 L44.7625,24.0156 C44.7625,26.5938 46.8719,28.4844 49.7625,28.4844 C50.9813,28.4844 52.1375,28.1875 52.8875,27.6406 C53.4656,27.2344 53.7938,26.7813 53.7938,26.3906 C53.7938,25.9375 53.4031,25.5469 52.9344,25.5469 C52.7156,25.5469 52.5125,25.625 52.325,25.8125 C51.8719,26.2969 51.8719,26.2969 51.6844,26.3906 C51.2625,26.6563 50.575,26.7813 49.8094,26.7813 C47.7625,26.7813 46.4656,25.6875 46.4656,23.9844 L46.4656,22.8906 C46.4656,21.1094 47.7156,19.7969 49.45,19.7969 C50.0281,19.7969 50.6375,19.9531 51.1063,20.2031 C51.5906,20.4844 51.7625,20.7031 51.8563,21.1094 C51.9188,21.5156 51.95,21.6406 52.0906,21.7656 C52.2313,21.9063 52.4656,22.0156 52.6844,22.0156 C52.95,22.0156 53.2156,21.875 53.3875,21.6563 C53.4969,21.5 53.5281,21.3125 53.5281,20.8906 L53.5281,19.4688 C53.5281,19.0313 53.5125,18.9063 53.4188,18.75 C53.2625,18.4844 52.9813,18.3438 52.6844,18.3438 C52.3875,18.3438 52.1844,18.4375 51.9656,18.75 L51.7938,18.6719 Z " fill="#000000"/><text fill="#000000" font-family="sans-serif" font-size="14" lengthAdjust="spacing" textLength="31" x="69.55" y="27.8467">User</text><line style="stroke:#181818;stroke-width:0.5;" x1="8" x2="130" y1="39" y2="39"/><rect fill="none" height="6" style="stroke:#C82930;stroke-width:1.0;" width="6" x="15" y="47"/><text fill="#000000" font-family="sans-serif" font-size="14" lengthAdjust="spacing" textLength="61" x="27" y="55.9951">String id</text><rect fill="none" height="6" style="stroke:#C82930;stroke-width:1.0;" width="6" x="15" y="63.2969"/><text fill="#000000" font-family="sans-serif" font-size="14" lengthAdjust="spacing" textLength="88" x="27" y="72.292">String name</text><line style="stroke:#181818;stroke-width:0.5;" x1="8" x2="130" y1="79.5938" y2="79.5938"/><ellipse cx="18" cy="90.5938" fill="#84BE84" rx="3" ry="3" style="stroke:#038048;stroke-width:1.0;"/><text fill="#000000" font-family="sans-serif" font-size="14" lengthAdjust="spacing" textLength="98" x="27" y="96.5889">String name()</text></g><!--MD5=[da382c11ee1fec359311af0da36294da]
class SpecificUser--><g id="elem_SpecificUser"><rect fill="#F1F1F1" height="48" id="SpecificUser" rx="2.5" ry="2.5" style="stroke:#181818;stroke-width:0.5;" width="121" x="8.5" y="164"/><ellipse cx="23.5" cy="180" fill="#ADD1B2" rx="11" ry="11" style="stroke:#181818;stroke-width:1.0;"/><path d="M25.8438,175.6719 C24.9063,175.2344 24.3125,175.0938 23.4375,175.0938 C20.8125,175.0938 18.8125,177.1719 18.8125,179.8906 L18.8125,181.0156 C18.8125,183.5938 20.9219,185.4844 23.8125,185.4844 C25.0313,185.4844 26.1875,185.1875 26.9375,184.6406 C27.5156,184.2344 27.8438,183.7813 27.8438,183.3906 C27.8438,182.9375 27.4531,182.5469 26.9844,182.5469 C26.7656,182.5469 26.5625,182.625 26.375,182.8125 C25.9219,183.2969 25.9219,183.2969 25.7344,183.3906 C25.3125,183.6563 24.625,183.7813 23.8594,183.7813 C21.8125,183.7813 20.5156,182.6875 20.5156,180.9844 L20.5156,179.8906 C20.5156,178.1094 21.7656,176.7969 23.5,176.7969 C24.0781,176.7969 24.6875,176.9531 25.1563,177.2031 C25.6406,177.4844 25.8125,177.7031 25.9063,178.1094 C25.9688,178.5156 26,178.6406 26.1406,178.7656 C26.2813,178.9063 26.5156,179.0156 26.7344,179.0156 C27,179.0156 27.2656,178.875 27.4375,178.6563 C27.5469,178.5 27.5781,178.3125 27.5781,177.8906 L27.5781,176.4688 C27.5781,176.0313 27.5625,175.9063 27.4688,175.75 C27.3125,175.4844 27.0313,175.3438 26.7344,175.3438 C26.4375,175.3438 26.2344,175.4375 26.0156,175.75 L25.8438,175.6719 Z " fill="#000000"/><text fill="#000000" font-family="sans-serif" font-size="14" lengthAdjust="spacing" textLength="89" x="37.5" y="184.8467">SpecificUser</text><line style="stroke:#181818;stroke-width:0.5;" x1="9.5" x2="128.5" y1="196" y2="196"/><line style="stroke:#181818;stroke-width:0.5;" x1="9.5" x2="128.5" y1="204" y2="204"/></g><!--MD5=[16040c4f3b10eccb0dfeec293bcc78d2]
reverse link User to SpecificUser--><g id="link_User_SpecificUser"><path codeLine="6" d="M69,124.733 C69,138.7604 69,152.6036 69,163.6622 " fill="none" id="User-backto-SpecificUser" style="stroke:#181818;stroke-width:1.0;"/><polygon fill="none" points="62.0001,124.3524,69,104.352,76.0001,124.3523,62.0001,124.3524" style="stroke:#181818;stroke-width:1.0;"/></g><!--MD5=[8efe03d7533c68c45416c7b5fdcd3e5f]
@startuml
class User {
  -String id
  -String name
  +String name()
}
User <|- - SpecificUser
@enduml

PlantUML version 1.2022.6beta2(Unknown compile time)
(GPL source distribution)
Java Runtime: Java(TM) SE Runtime Environment
JVM: Java HotSpot(TM) 64-Bit Server VM
Default Encoding: UTF-8
Language: en
Country: US
--></g></svg>