<?xml version="1.0" encoding="UTF-8" standalone="no"?><svg xmlns="http://www.w3.org/2000/svg" xmlns:xlink="http://www.w3.org/1999/xlink" contentStyleType="text/css" height="257px" preserveAspectRatio="none" style="width:363px;height:257px;background:#FFFFFF;" version="1.1" viewBox="0 0 363 257" width="363px" zoomAndPan="magnify"><defs/><g><!--MD5=[111002b242a260edbcaabc3e471064d0]
cluster checkout--><g id="cluster_checkout"><rect height="244" rx="2.5" ry="2.5" style="stroke:#181818;stroke-width:1.0;fill:none;" width="152" x="121" y="7"/><text fill="#000000" font-family="sans-serif" font-size="14" font-weight="bold" lengthAdjust="spacing" textLength="74" x="160" y="21.9951">checkout</text></g><g id="elem_checkout"><ellipse cx="197.0664" cy="138.7722" fill="#F1F1F1" rx="60.0664" ry="14.7722" style="stroke:#181818;stroke-width:0.5;"/><text fill="#000000" font-family="sans-serif" font-size="14" lengthAdjust="spacing" textLength="67" x="160.5664" y="142.5198">checkout</text></g><g id="elem_payment"><ellipse cx="197.0731" cy="56.7619" fill="#F1F1F1" rx="58.5731" ry="14.7619" style="stroke:#181818;stroke-width:0.5;"/><text fill="#000000" font-family="sans-serif" font-size="14" lengthAdjust="spacing" textLength="65" x="161.5731" y="60.5095">payment</text></g><g id="elem_help"><ellipse cx="197.1191" cy="220.026" fill="#F1F1F1" rx="34.1191" ry="14.526" style="stroke:#181818;stroke-width:0.5;"/><text fill="#000000" font-family="sans-serif" font-size="14" lengthAdjust="spacing" textLength="32" x="180.6725" y="223.0381">help</text></g><!--MD5=[92848cbaf65985a669855153c5362c37]
entity customer--><g id="elem_customer"><ellipse cx="40" cy="109.5" fill="#F1F1F1" rx="8" ry="8" style="stroke:#181818;stroke-width:0.5;"/><path d="M40,117.5 L40,144.5 M27,125.5 L53,125.5 M40,144.5 L27,159.5 M40,144.5 L53,159.5 " fill="none" style="stroke:#181818;stroke-width:0.5;"/><text fill="#000000" font-family="sans-serif" font-size="14" lengthAdjust="spacing" textLength="68" x="6" y="173.9951">customer</text></g><!--MD5=[ebeabf449828f4e0b33bbb47961e644b]
entity clerk--><g id="elem_clerk"><ellipse cx="338" cy="109.5" fill="#F1F1F1" rx="8" ry="8" style="stroke:#181818;stroke-width:0.5;"/><path d="M338,117.5 L338,144.5 M325,125.5 L351,125.5 M338,144.5 L325,159.5 M338,144.5 L351,159.5 " fill="none" style="stroke:#181818;stroke-width:0.5;"/><text fill="#000000" font-family="sans-serif" font-size="14" lengthAdjust="spacing" textLength="36" x="320" y="173.9951">clerk</text></g><!--MD5=[852381a7bb976b86080137fb6d718ea9]
link customer to checkout--><g id="link_customer_checkout"><path d="M74.2514,139 C92.4868,139 115.638,139 136.844,139 " fill="none" id="customer-checkout" style="stroke:#181818;stroke-width:1.0;"/></g><!--MD5=[3ad5c6d5c608bfd6b87dc9c07c40a15f]
link checkout to payment--><g id="link_checkout_payment"><path d="M197,123.96 C197,110.865 197,91.768 197,77.317 " fill="none" id="checkout-to-payment" style="stroke:#181818;stroke-width:1.0;stroke-dasharray:7.0,7.0;"/><polygon fill="#181818" points="197,72.222,193,81.222,197,77.222,201,81.222,197,72.222" style="stroke:#181818;stroke-width:1.0;"/><text fill="#000000" font-family="sans-serif" font-size="13" lengthAdjust="spacing" textLength="45" x="163" y="102.5669">include</text></g><!--MD5=[739e7928149c8fe27c2b5850560351c7]
link help to checkout--><g id="link_help_checkout"><path d="M197,205.1434 C197,192.2082 197,173.3445 197,159.069 " fill="none" id="help-to-checkout" style="stroke:#181818;stroke-width:1.0;stroke-dasharray:7.0,7.0;"/><polygon fill="#181818" points="197,154.037,193,163.037,197,159.037,201,163.037,197,154.037" style="stroke:#181818;stroke-width:1.0;"/><text fill="#000000" font-family="sans-serif" font-size="13" lengthAdjust="spacing" textLength="52" x="159.5" y="184.3169">extends</text></g><!--MD5=[b4c4ee8f2d94c159d2b9e04bd372cbe0]
link checkout to clerk--><g id="link_checkout_clerk"><path d="M257.352,139 C280.079,139 304.285,139 319.967,139 " fill="none" id="checkout-clerk" style="stroke:#181818;stroke-width:1.0;"/></g><!--MD5=[bbcf846fd0df63f7a59d19f7c004c411]
@startuml
left to right direction
skinparam packageStyle rect
actor customer
actor clerk
rectangle checkout {
  customer - - (checkout)
  (checkout) .> (payment) : include
  (help) .> (checkout) : extends
  (checkout) - - clerk
}
@enduml

PlantUML version 1.2022.6beta2(Unknown compile time)
(GPL source distribution)
Java Runtime: Java(TM) SE Runtime Environment
JVM: Java HotSpot(TM) 64-Bit Server VM
Default Encoding: UTF-8
Language: en
Country: US
--></g></svg>